<?xml version="1.0" encoding="UTF-8"?>
<svg width="24px" height="24px" viewBox="0 0 24 24" version="1.1" xmlns="http://www.w3.org/2000/svg" xmlns:xlink="http://www.w3.org/1999/xlink">
    <title>B6022D0F-275B-4F45-859D-D501C9A49164@0.0x</title>
    <g id="学生端" stroke="none" stroke-width="1" fill="none" fill-rule="evenodd">
        <g id="问题抢答" transform="translate(-24, -24)" fill-rule="nonzero">
            <g id="闪电" transform="translate(24, 24)">
                <rect id="矩形" fill="#000000" opacity="0" x="0" y="2.2139263e-06" width="24" height="24"></rect>
                <path d="M7.77766406,23.6220022 L10.0604062,12.641135 L3.90546094,12.641135 C3.76786499,12.6412224 3.63909543,12.5733826 3.56135754,12.4598508 C3.48361966,12.346319 3.4669355,12.2017318 3.51677344,12.0734788 L7.78300781,1.04718971 C7.96515191,0.576741838 8.4178975,0.266777859 8.922375,0.267138473 L15.6690234,0.267138473 C15.8460438,0.26642837 16.0119253,0.353440167 16.1119647,0.499484125 C16.2120042,0.645528084 16.2332117,0.831640845 16.1685937,0.996447526 L13.7095312,7.31700221 L20.3066016,7.34772878 C20.3852537,7.3478274 20.4569637,7.39277019 20.4913422,7.46351125 C20.5257207,7.53425231 20.516748,7.61840497 20.4682266,7.6803069 L7.93928906,23.6981272 C7.9124925,23.7306885 7.86701312,23.7409072 7.82886311,23.7229386 C7.7907131,23.70497 7.76962656,23.663399 7.77766406,23.6220022 Z" id="路径" fill="#0091FF" opacity="0.647228423"></path>
                <path d="M3.90546094,12.6411351 L4.73627344,12.6411351 L9.25898438,0.267142517 L8.922375,0.267142517 C8.4178975,0.266777859 7.96515191,0.576741838 7.78300781,1.04718971 L3.51679688,12.0734788 C3.46695894,12.2017318 3.48364309,12.346319 3.56138098,12.4598508 C3.63911887,12.5733826 3.76788843,12.6411351 3.90548438,12.6411351 L3.90546094,12.6411351 Z" id="路径" fill="#FFFFFF"></path>
                <path d="M20.3587031,7.28763503 L19.3448906,7.28763503 L8.2198125,21.6892288 L7.82976562,23.5592132 C7.82141379,23.6010723 7.84289971,23.6431886 7.88169138,23.6609972 C7.92048306,23.6788058 7.96642735,23.6676454 7.99272656,23.6340257 L20.5203047,7.62021315 C20.5688235,7.55831454 20.5777981,7.47416724 20.5434255,7.40342802 C20.5090529,7.33268879 20.4373511,7.28763503 20.3587031,7.28763503 Z" id="路径" fill="#0091FF"></path>
                <path d="M6.4513125,4.75781691 C6.36279526,4.75817266 6.27984851,4.71466049 6.22982969,4.64162935 C6.17981087,4.56859821 6.16921585,4.47553255 6.20153906,4.39312721 L6.70375781,3.09483034 C6.75957959,2.96138493 6.91147468,2.8966119 7.04641782,2.94870891 C7.18136095,3.00080592 7.2503243,3.15084499 7.20199219,3.2871819 L6.69440625,4.58681471 C6.65548966,4.68779065 6.5594993,4.75531337 6.4513125,4.75781691 L6.4513125,4.75781691 Z M7.86850781,24.0000025 C7.81593587,24.0000025 7.76399111,23.9885834 7.71623437,23.9666038 C7.56415134,23.8961239 7.48100897,23.7298488 7.51586719,23.5658928 L9.7318125,12.9082757 L3.90546094,12.9082757 C3.67889728,12.9086188 3.46686962,12.7967327 3.33928515,12.6095071 C3.21170068,12.4222816 3.18512208,12.1840216 3.2683125,11.9732835 L5.60580469,5.92922096 C5.63824154,5.83754602 5.71793248,5.77073869 5.81386171,5.75480045 C5.90979093,5.73886221 6.00680359,5.77631097 6.06714225,5.85257165 C6.12748091,5.92883232 6.14161329,6.03185727 6.10403906,6.12154909 L3.76654687,12.1696428 C3.74874786,12.2147815 3.75394587,12.2657489 3.78049074,12.306365 C3.80703562,12.3469812 3.85163008,12.3722008 3.90011719,12.3740178 L10.3889766,12.3740178 L8.19173437,22.9407913 L9.81196875,20.8704397 C9.86911968,20.7907899 9.96530561,20.7488415 10.0625619,20.7611515 C10.1598181,20.7734616 10.2425191,20.8380522 10.2780226,20.9294296 C10.3135261,21.0208069 10.296128,21.1242898 10.2326953,21.1990335 L8.15034375,23.8624241 C8.08268673,23.9493479 7.97865864,24.0000025 7.86850781,24.0000025 Z" id="形状" fill="#333333"></path>
                <path d="M11.2972734,19.672315 C11.1951033,19.672315 11.1017919,19.6143407 11.0568954,19.5225635 C11.011999,19.4307862 11.0233819,19.3214395 11.0862187,19.2408772 L20.1850547,7.61353346 L13.3195078,7.58147096 L15.9188203,0.902955339 C15.9511892,0.820607017 15.9406835,0.727573963 15.8907656,0.654517839 C15.8416226,0.579877004 15.7584117,0.534753134 15.6690469,0.534283464 L8.92235156,0.534283464 C8.52776979,0.535139415 8.17386464,0.77725813 8.03008594,1.14471315 L7.66945312,2.07970534 C7.63707264,2.17145932 7.55736566,2.2383515 7.46138519,2.25432139 C7.36540471,2.27029128 7.26833185,2.23281295 7.20798516,2.15648755 C7.14763847,2.08016215 7.13356292,1.97706198 7.17124219,1.88735378 L7.531875,0.952361589 C7.75605884,0.379669827 8.30737097,0.00207379796 8.922375,0 L15.6690234,0 C15.9343128,-0.000620320981 16.1827195,0.130079302 16.3324589,0.349070024 C16.4821984,0.568060746 16.5138643,0.846961309 16.4170312,1.09394753 L14.0995781,7.05119753 L20.3079375,7.08058815 C20.4880447,7.08208092 20.6517572,7.18548342 20.7304905,7.347477 C20.8092238,7.50947058 20.7893835,7.70208476 20.6792812,7.84462721 L11.5029609,19.569471 C11.4534178,19.6330188 11.3778376,19.6708089 11.2972734,19.672315 Z" id="路径" fill="#333333"></path>
            </g>
        </g>
    </g>
</svg>