<?xml version="1.0" encoding="UTF-8"?>
<svg width="160px" height="81px" viewBox="0 0 160 81" version="1.1" xmlns="http://www.w3.org/2000/svg" xmlns:xlink="http://www.w3.org/1999/xlink">
    <title>B3860867-75AF-4010-8D18-706E815F4E86@0.0x</title>
    <defs>
        <rect id="path-1" x="0" y="0" width="150" height="50" rx="10"></rect>
        <filter x="-5.7%" y="-13.0%" width="111.3%" height="134.0%" filterUnits="objectBoundingBox" id="filter-2">
            <feOffset dx="0" dy="2" in="SourceAlpha" result="shadowOffsetOuter1"></feOffset>
            <feGaussianBlur stdDeviation="2.5" in="shadowOffsetOuter1" result="shadowBlurOuter1"></feGaussianBlur>
            <feColorMatrix values="0 0 0 0 0   0 0 0 0 0   0 0 0 0 0  0 0 0 0.0799005682 0" type="matrix" in="shadowBlurOuter1"></feColorMatrix>
        </filter>
    </defs>
    <g id="规范文件类" stroke="none" stroke-width="1" fill="none" fill-rule="evenodd">
        <g id="B端控件-切图文件" transform="translate(-314, -4527)">
            <g id="编组-5备份-2" transform="translate(319, 4527)">
                <g id="编组-9备份" transform="translate(0, 23.1808)">
                    <g id="矩形">
                        <use fill="black" fill-opacity="1" filter="url(#filter-2)" xlink:href="#path-1"></use>
                        <use fill="#FFFFFF" fill-rule="evenodd" xlink:href="#path-1"></use>
                    </g>
                    <text id="管理员" font-family="MicrosoftYaHei-Bold, Microsoft YaHei" font-size="14" font-weight="bold" fill="#999999">
                        <tspan x="14.6988848" y="21.3048327">管理员</tspan>
                    </text>
                </g>
                <g id="编组-9" transform="translate(102.1255, 36.5) scale(-1, 1) translate(-102.1255, -36.5)translate(65, 0)">
                    <g id="编组-4" transform="translate(0, 26.9372)">
                        <path d="M56.0853294,5.86011699 L57.8823378,14.4516136 C59.534155,15.066006 60.2621342,15.6521717 60.4188544,15.986483 C60.4944433,16.1477271 60.5300599,16.4485963 60.4810526,16.9035144 C59.327629,17.8031711 58.7336212,17.9091315 57.8994777,17.9584479 C54.766349,18.1436852 53.2560355,17.7609738 52.895537,17.3743189 L51.5893494,15.9733595 C51.1964327,15.3492693 50.9259717,14.6552235 50.7555202,13.9454595 C50.264097,11.8991616 50.6371426,9.78371959 51.0162027,9.05454469 C51.4970687,8.12953178 53.0841128,6.98503216 56.0853294,5.86011699 Z" id="路径-60" stroke="#32ACF4" stroke-width="2" fill="#FFFFFF" stroke-linecap="round"></path>
                        <path d="M61.4059504,15.8163747 L63.005502,18.9747676 L58.8443622,20.6148278 L56.4981359,16.1294717 L61.4059504,15.8163747 Z" id="路径-61" stroke="#32ACF4" stroke-width="2" fill="#FFFFFF" stroke-linecap="round"></path>
                        <path d="M66.934057,-0.741540093 L67.7094074,1.09818225 C67.2245249,1.33756525 66.9105695,1.72313094 66.7105362,2.25658138 C66.4522272,2.9454418 66.3694444,3.84022234 66.4275668,4.93411705 C65.8421574,8.42127361 66.4864477,11.3940924 68.3513587,14.0768878 C69.7182466,15.7119115 70.2741037,16.8517769 70.2947249,17.4472448 C70.3038305,17.7101839 70.2161681,18.0862357 70.0071627,18.5726313 C69.7309714,18.538594 69.4564765,18.5062508 69.183678,18.4756024 C65.9635549,18.1138268 62.4605647,17.9298496 58.674765,17.9227298 C55.7821684,16.8475327 54.2980369,15.340484 53.7317488,13.4277076 C53.1860964,11.5846335 53.5048859,9.29011988 54.8322366,6.54343159 C59.9369141,2.63558301 63.8723661,0.338497216 66.934057,-0.741540093 Z" id="路径-59" stroke="#32ACF4" stroke-width="2" fill="#32ACF4" stroke-linecap="round"></path>
                        <path d="M54.4660244,28.8963536 C54.6529067,28.6530925 55.4033239,27.910512 56.717276,26.6686121 C56.7400096,26.6471251 56.7744895,26.6145584 56.8207158,26.5709119 C56.4159679,22.8346304 56.381488,20.7799705 56.717276,20.4069321 C57.220958,19.8473744 58.5061099,19.8351263 58.7002994,20.0190749 L59.0361574,20.3893537 C60.2859088,19.2621487 61.1539245,18.6453575 61.6402044,18.5389803 C62.3696243,18.3794145 63.5192161,18.9840598 63.7620106,19.3403893 C64.004805,19.6967189 64.7429746,19.5953468 65.0013375,19.7965335 C65.2597004,19.9977202 65.9180204,20.7813095 65.9180204,21.2419749 C65.9180204,21.4582242 66.9549784,21.400058 67.2945287,21.8692821 C67.6783057,22.3996231 67.545394,23.0591146 67.7057013,23.3664581 C67.7672931,23.484543 67.9935212,23.7391816 68.3118279,24.2189426 C68.6301347,24.6987035 68.9884832,25.0878598 67.9935212,26.8374219 C66.9985592,28.586984 67.4091099,28.4588235 65.9180204,29.5214613 C64.4269309,30.5840991 62.8138683,31.0192476 62.0280113,31.2069387 C61.2421544,31.3946298 58.5270723,34.7458516 58.5270723,34.7458516 C58.5270723,34.7458516 54.4660244,33.4979042 54.4660244,33.4979042 C54.4660244,33.4979042 53.6608177,30.984658 53.6608177,30.563232 C53.6608177,30.1418059 54.1784259,29.2707151 54.4660244,28.8963536 Z" id="路径-57" stroke="#32ACF4" stroke-width="2" fill="#FFFFFF" stroke-linecap="round"></path>
                        <path d="M67.520326,-0.977427525 C69.4527279,-1.1604338 71.3299271,-0.224293362 72.7630399,1.55035934 C74.065355,3.16304266 74.9923067,5.47025411 75.2050675,8.10268255 C75.4174323,10.7302121 74.8771971,13.172324 73.8551105,15.0021876 C72.7339687,17.0093919 71.0421784,18.2771394 69.1188978,18.4592818 C67.1864959,18.6422881 65.3092967,17.7061477 63.8761839,15.931495 C62.5738688,14.3188116 61.6469171,12.0116002 61.4341563,9.37917175 C61.2217915,6.75164225 61.7620267,4.3095303 62.7841133,2.47966669 C63.9052551,0.472462436 65.5970454,-0.795285067 67.520326,-0.977427525 Z" id="椭圆形" stroke="#32ACF4" stroke-width="2" fill="#FFFFFF" stroke-linecap="round"></path>
                        <path d="M2.08936348,46.0628429 L2.08936348,39.2627253 C-0.560939087,36.2989912 -0.0383745046,32.4903882 0.225433406,30.1781465 C0.621145272,26.709784 2.67314448,22.5059971 10.3298031,17.8929163 C17.9864617,13.2798354 25.8248975,13.7098041 30.9803026,15.8013602 C36.1357076,17.8929163 41.4900229,20.6716121 41.4900229,21.09034 C41.4900229,21.3694919 42.3421629,21.2157474 44.2027718,24.0024437 C46.0633807,26.78914 47.6558533,30.3130031 48.2671998,31.3487617 C48.8785463,32.3845202 49.2948543,32.6903303 49.5161238,32.2661918 L54.4035082,27.2919839 C54.6081111,29.132455 55.1004621,30.8188793 56.6815255,31.5701425 C56.7436151,31.5996452 59.4936799,32.7504033 60.8680311,32.9023995 C61.211886,32.9404281 60.5269906,31.9547764 60.8680311,31.9684521 C61.5254772,32.7048412 61.6988743,33.2335162 61.3882225,33.5544769 C59.1111833,35.9070796 55.6110687,39.7000656 50.8878785,44.9334349 C49.2892403,46.1201209 47.194246,45.1678683 44.6028956,42.0766773 C42.0115452,38.9854863 40.5578733,37.2701963 40.2418799,36.9308074 L40.2418799,46.0628429" id="路径" stroke="#32ACF4" stroke-width="2" fill="#32ACF4" stroke-linejoin="round"></path>
                        <path d="M33.1351576,46.0628429 L33.1351576,24.131836 L29.7571275,20.7538059 C29.3914546,20.871156 28.7905137,20.871156 27.9543047,20.7538059 C27.2451141,20.654281 26.4641835,21.1122894 25.3045437,20.7538059 C22.0939013,19.7612888 18.9175531,18.3205589 15.7754991,16.4316162 L22.8723384,46.0628429" id="路径" stroke="#55BBF7" stroke-linecap="round"></path>
                        <path d="M25.031871,8.53539494 L30.9131929,12.604751 L30.9131929,14.795901 L28.2773707,21.4094234 L25.0336445,21.4094234 L16.9864617,14.2634236 L16.9864617,10.7995325 L25.031871,8.53539494 Z" id="路径-53" stroke="#32ACF4" stroke-width="2" fill="#FFFFFF" stroke-linecap="round"></path>
                        <polyline id="路径" stroke="#32ACF4" stroke-width="2" fill="#FFFFFF" stroke-linecap="round" points="30.3648869 46.0628429 29.0904613 26.5831908 29.9131929 23.1255376 27.5946163 19.7419561 25.4135636 20.3853101 22.8723384 23.908001 25.4135636 27.1575713 25.0498185 46.0628429"></polyline>
                        <path d="M18.1463509,10.9638306 L26.7161936,20.3532506 L20.7605551,28.1292036 C17.2741254,22.40144 15.3441903,18.6402883 14.9093655,16.8652004 C14.6558821,15.8304037 14.7589991,14.8436614 15.2131591,13.904367 C15.715546,12.8653298 16.6735039,11.869914 18.1463509,10.9638306 Z" id="路径-54" stroke="#32ACF4" stroke-width="2" fill="#FFFFFF" stroke-linecap="round"></path>
                        <path d="M29.393119,13.2589546 C31.4649966,14.0212935 32.9212826,15.7006528 33.6329557,18.4062197 C34.2802188,20.8669189 34.3093989,24.2217072 33.6683098,28.4767154 L26.4290158,20.32265 Z" id="路径-55" stroke="#32ACF4" stroke-width="2" fill="#FFFFFF" stroke-linecap="round"></path>
                        <path d="M8.38025674,30.1781465 C8.07342889,30.9173616 8.87629891,33.2534672 10.7888668,37.1864631 C12.7014347,41.1194591 14.5508929,44.0782524 16.3372414,46.0628429" id="路径-62" stroke="#55BBF7" stroke-linecap="round"></path>
                        <line x1="39.4372055" y1="30.1781465" x2="40.2418799" y2="36.9308074" id="路径-63" stroke="#55BBF7" stroke-linecap="round"></line>
                        <path d="M68.2135387,5.84648832 C68.9776954,5.78641067 69.7100752,5.96020417 70.2784053,6.27633112 C70.9787925,6.66591333 71.4265945,7.26402095 71.5532602,7.9156598 C71.679926,8.56729865 71.4887863,9.28960393 70.9853386,9.91318796 C70.5787244,10.4168314 69.9686021,10.8506173 69.2420898,11.0819984 L63.7553434,12.8294288 L62.2151313,12.8294288 L61.4218209,6.49789111 Z" id="路径" stroke="#32ACF4" stroke-width="2" fill="#FFFFFF" stroke-linecap="round" stroke-linejoin="round"></path>
                        <path d="M2.08936348,39.2627253 C3.76782598,42.4105153 5.44628848,44.6772212 7.12475098,46.0628429" id="路径-64" stroke="#55BBF7" stroke-linecap="round"></path>
                    </g>
                    <path d="M6.55421648,24.2913756 C7.69832217,23.6739727 9.67444497,23.7428985 12.5824831,24.9026505 L15.4229412,32.6329407 C12.3745358,33.797915 10.0274966,33.9263394 8.35399634,33.2251416 C6.75882457,32.5567634 5.66935772,31.1541266 5.2105577,28.8987306 C4.98655329,27.7975566 4.97933533,26.8990924 5.14539055,26.2005266 C5.35966922,25.299093 5.84395154,24.6746616 6.55421648,24.2913756 Z" id="路径-52" stroke="#32ACF4" stroke-width="2" fill="#FFFFFF" stroke-linecap="round"></path>
                    <path d="M17.0759978,12.5018858 C22.6943441,12.2370233 26.9902949,12.213548 29.9639876,12.4269947 C33.5246271,12.6825715 35.2107534,13.4614552 35.6476063,14.2327174 C36.8357471,16.3303762 37.1967369,22.0570929 36.7237029,25.4663323 C36.601028,26.3504719 36.6975221,27.4641118 36.7905541,28.6667856 C37.0564355,32.1039734 37.1920697,36.040888 34.2800479,38.3719399 C30.2580321,41.5915338 26.2934327,42.33205 19.4513473,39.8038862 C17.1268695,38.9449871 15.2272625,37.3693103 13.7670393,35.0583157 C12.3545728,32.8229022 11.3530078,29.8807803 10.7898171,26.2205312 L11.9748332,17.1339149 Z" id="路径-48" stroke="#32ACF4" stroke-width="2" fill="#FFFFFF" stroke-linecap="round"></path>
                    <rect id="矩形" fill="#32ACF4" x="22.6196635" y="22.7890376" width="2.24191428" height="3.13867999" rx="1.12095714"></rect>
                    <rect id="矩形备份-4" fill="#32ACF4" x="32.3719906" y="22.0043676" width="1.56934" height="3.13867999" rx="0.784669999"></rect>
                    <path d="M7.10850837,25.6002197 C9.13104125,24.1648544 10.9192698,24.5688586 12.473194,26.8122323 C14.8040802,30.177293 15.4849896,29.7284776 15.4849896,28.70636 C15.4849896,27.6842424 14.2340937,16.1998124 19.0715944,15.6108364 C26.9354595,17.0218871 32.2127331,16.6334563 34.9034152,14.445544 C38.9394383,11.1636754 39.1085353,0.613348131 37.8690934,0.0508971093 C36.6296515,-0.511553913 35.1071756,3.77314131 27.089385,3.77314131 C19.0715944,3.77314131 8.8332376,3.66191707 8.8332376,11.8816595 C6.81371893,14.5221048 6.1205518,17.9140924 6.75373621,22.0576223 C7.38692062,26.2011521 7.50517801,27.3820179 7.10850837,25.6002197 Z" id="路径-47" fill="#32ACF4"></path>
                    <path d="M35.9392267,12.2521915 C37.1878466,13.8875149 37.5454454,15.6079531 37.012023,17.4135063 C36.4786006,19.2190594 35.9652706,20.2291099 35.4720329,20.4436575 C34.0814148,17.1360746 33.449521,15.3561631 33.5763513,15.103923 C33.7665969,14.7255628 33.75546,13.0057109 34.3964624,12.4986955 C34.8237973,12.1606853 35.3380521,12.0785173 35.9392267,12.2521915 Z" id="路径-49" fill="#32ACF4"></path>
                    <path d="M28.3457705,29.4511256 C29.3246476,30.5205848 30.1729956,30.4568166 30.8908146,29.2598209" id="路径-50" stroke="#32ACF4" stroke-width="2" stroke-linecap="round" stroke-linejoin="round"></path>
                    <path d="M27.8557698,33.3948931 C28.0353566,34.592129 28.5534985,35.1248547 29.4101956,34.9930701 C30.2668927,34.8612856 30.7387131,34.3073409 30.8256568,33.3312359" id="路径-51" stroke="#32ACF4" stroke-width="2" stroke-linecap="round" stroke-linejoin="round"></path>
                </g>
                <circle id="椭圆形备份-3" stroke="#C6C6C6" fill="#F0F0F0" cx="20" cy="59" r="3.5"></circle>
            </g>
        </g>
    </g>
</svg>