<svg width="16px" height="16px" viewBox="0 0 16 16" version="1.1" xmlns="http://www.w3.org/2000/svg" xmlns:xlink="http://www.w3.org/1999/xlink">
    <g stroke="none" stroke-width="1" fill="none" fill-rule="evenodd">
        <g transform="translate(-1095, -727)" fill="currentColor" fill-rule="nonzero">
            <g transform="translate(1103, 735) scale(-1, 1) translate(-1103, -735)translate(1095, 727)">
                <rect opacity="0" x="0" y="0" width="16" height="16"></rect>
                <path d="M10.3845156,1.8875625 L1.46014062,1.8875625 C1.24651562,1.8875625 1.072,2.057875 1.06628125,2.27096875 L1.06628125,3.473 C1.07198437,3.68607812 1.2465,3.85639062 1.460125,3.85639062 L10.3845,3.85639062 C10.6017031,3.85639062 10.7786094,3.68035937 10.7786094,3.46228125 L10.7786094,2.28170312 C10.7786094,2.06360937 10.6017031,1.8875625 10.3845156,1.8875625 L10.3845156,1.8875625 Z M1.46003125,8.71214062 L9.20296875,8.71214062 C9.42104687,8.71214062 9.59709375,8.53609375 9.59709375,8.31803125 L9.59709375,7.13745312 C9.59709375,6.919375 9.42104687,6.74332812 9.20296875,6.74332812 L1.46003125,6.74332812 C1.2476875,6.74332812 1.0739375,6.91160937 1.06628125,7.12292187 L1.06628125,8.33253125 C1.07395312,8.54384375 1.2476875,8.71214062 1.46003125,8.71214062 Z M10.3845156,11.5995625 L1.46014062,11.5995625 C1.24651562,11.5995625 1.072,11.769875 1.06628125,11.9829687 L1.06628125,13.1849844 C1.07198437,13.3980625 1.2465,13.5683906 1.460125,13.5683906 L10.3845,13.5683906 C10.6017031,13.5683906 10.7786094,13.3923437 10.7786094,13.1742656 L10.7786094,11.9936875 C10.7786094,11.7755937 10.6017031,11.5995625 10.3845156,11.5995625 L10.3845156,11.5995625 Z M14.8833125,7.502125 L11.6087031,4.9736875 C11.4265469,4.8265625 11.0814844,4.90976562 11.0814844,5.34679687 L11.0814844,10.1846875 C11.0814844,10.7154219 11.4265469,10.7145625 11.6087031,10.5577812 L14.8833125,8.02934375 C15.0646094,7.89275 15.0523437,7.64840625 14.8833125,7.502125 L14.8833125,7.502125 Z" id="形状"></path>
            </g>
        </g>
    </g>
</svg>